PathFileType	4	(X/Y/Z)	OpenSim_Sub04_CSBaseline_Gyro.trc
DataRate	CameraRate	NumFrames	NumMarkers	Units	OrigDataRate	OrigDataStartFrame	OrigNumFrames
100	100	33	8	m	100	3032	8083
Frame#	Time	torso_imu_offset_imu	pelvis_imu_offset_imu	tibia_r_imu_offset_imu	femur_r_imu_offset_imu	tibia_l_imu_offset_imu	femur_l_imu_offset_imu	toes_r_imu_offset_imu	toes_l_imu_offset_imu
				X1	Y1	Z1	X2	Y2	Z2	X3	Y3	Z3	X4	Y4	Z4	X5	Y5	Z5	X6	Y6	Z6	X7	Y7	Z7	X8		Y8	Z8	

3032	30.31000000	-0.20322115	-0.07562731	0.20482257	0.28708268	-0.20103817	-0.15904303	0.41966162	-0.38852605	-1.39037372	-0.46229765	-0.13454042	0.27572326	0.09840814	-0.01571469	1.48763603	0.03692074	-0.13537037	0.34189398	0.33738632	-1.23420392	-0.11406742	0.39097600	-1.34348687	0.28459536
3033	30.32000000	-0.21068166	-0.13576030	0.20786641	0.35926545	-0.19876070	-0.15885040	0.36015294	-0.50743734	-1.95182110	-0.39722791	-0.13378552	0.31403364	0.02872251	-0.02130657	1.57855382	0.23327598	0.01026044	0.29858426	-0.31106521	-1.73481189	0.04022851	0.39543204	-1.44141985	0.28484837
3034	30.33000000	-0.25971796	-0.20714854	0.21576505	0.42506395	-0.19015419	-0.15080364	0.27761703	-0.61227161	-2.27912764	-0.28121994	-0.17975868	0.24436625	-0.04946093	-0.04775522	1.65093142	0.41747444	0.14855749	0.19908576	-1.00287262	-1.31800584	0.89113995	0.41661068	-1.55123164	0.27281472
3035	30.34000000	-0.30342293	-0.24921437	0.21850179	0.47389122	-0.20094190	-0.15478765	-0.10090691	-0.74926431	-1.97675908	-0.17605328	-0.37012874	0.08014197	-0.06566100	-0.07366118	1.74537963	0.52077630	0.28915694	0.12896893	0.40986836	-1.27477842	0.76568363	0.46259540	-1.70404482	0.25551384
3036	30.35000000	-0.31896232	-0.27044509	0.23655657	0.48517838	-0.23645148	-0.17029883	-0.49024652	-0.98185822	-1.09942062	-0.18506300	-0.67322813	-0.16215419	0.00145104	-0.10099765	1.84062109	0.55917176	0.40220840	0.07512667	0.35881840	-1.87409606	0.44600212	0.51856367	-1.86800667	0.23934030
3037	30.36000000	-0.34198276	-0.27256391	0.24732031	0.49383154	-0.24957206	-0.18245829	-0.48420329	-0.86965625	-0.19158043	-0.19943467	-0.87430355	-0.47742494	0.12861122	-0.12394010	1.91130978	0.56724724	0.49802376	0.02583507	0.16116493	-2.16490575	0.15859142	0.56025009	-2.06198669	0.23532165
3038	30.37000000	-0.34134646	-0.29116606	0.25247443	0.50876786	-0.21936793	-0.21224555	0.14129072	-0.59273889	-0.07580027	-0.17157629	-0.90282644	-0.78416258	0.27231730	-0.18821784	1.98067462	0.53156931	0.60402754	0.00537214	-0.17031516	-2.17098494	-0.19709086	0.64236768	-2.29110476	0.22786975
3039	30.38000000	-0.35559762	-0.31333333	0.26373124	0.52088115	-0.16585851	-0.22623565	0.69362363	-0.47223152	-0.73550354	-0.26506503	-0.78126029	-0.83684715	0.40427876	-0.26659041	2.07175215	0.41932070	0.69430690	-0.06220662	-0.26853793	-2.17959704	-0.51591196	0.74153014	-2.53876858	0.24042548
3040	30.39000000	-0.32824642	-0.30507600	0.27700438	0.47741316	-0.11273951	-0.22748389	0.97726444	-0.39838904	-1.06348579	-0.46110583	-0.55874668	-0.55131965	0.54219260	-0.39296635	2.19744104	0.24632610	0.79281169	-0.18605726	-0.38132764	-2.01228861	-0.29228827	0.85899037	-2.88082374	0.26252219
3041	30.40000000	-0.31746532	-0.28427385	0.29370477	0.35123082	-0.08551318	-0.21923512	1.17820908	-0.28587611	-1.12545445	-0.54029491	-0.31572406	-0.12014273	0.59454392	-0.51701838	2.32273602	0.02938338	0.94216722	-0.32679841	1.61922469	-1.24743553	-0.37749662	0.95917752	-3.24224165	0.31326216
3042	30.41000000	-0.29450336	-0.25196266	0.30297410	0.17198906	-0.08678997	-0.18719327	1.55786325	-0.29478551	-1.25270692	-0.49072036	-0.25214678	0.23619913	0.59206173	-0.58156200	2.41275872	-0.08628860	1.13576017	-0.50553491	1.83140739	-1.21344532	-0.42093202	0.92871209	-3.62457266	0.40175402
3043	30.42000000	-0.23352436	-0.20878557	0.29821948	0.03205849	-0.13172646	-0.09929585	1.65281518	-0.37788387	-1.27924646	-0.24904074	-0.32958548	0.35032558	0.48665138	-0.57704584	2.49778974	-0.18588804	1.31483931	-0.72379845	1.29028726	-0.83046435	-0.48812837	0.90242551	-4.01939933	0.51190388
3044	30.43000000	-0.24811129	-0.16670799	0.29868933	-0.00246407	-0.18301453	0.01012616	1.31123826	-0.46037606	-1.22682704	0.21378566	-0.38913557	0.15071091	0.35272595	-0.52665131	2.58518830	-0.19118388	1.45602486	-0.90621539	0.70928848	-0.58729574	-0.35222502	1.17797221	-4.26331775	0.59887533
3045	30.44000000	-0.27130346	-0.14420315	0.30517269	0.03586374	-0.17434598	0.09562677	0.77955323	-0.51943967	-1.24716741	0.59968189	-0.35424823	-0.21455500	0.24238466	-0.44013789	2.66264999	-0.20649227	1.52858865	-1.11108955	0.60134465	-0.55196101	-0.06022818	1.58726953	-4.49808301	0.67464230
3046	30.45000000	-0.29626351	-0.12984439	0.30962472	0.08103687	-0.13915273	0.15961267	0.22579765	-0.55529208	-1.30621506	0.55479130	-0.23356939	-0.55073202	0.03981100	-0.36239799	2.73348751	-0.16648881	1.61274811	-1.23370128	0.72457391	-0.46288055	0.04319934	1.97355711	-4.50060292	0.87605819
3047	30.46000000	-0.39687156	-0.11580367	0.33246439	0.12963081	-0.10880582	0.19764852	-0.17861560	-0.52127716	-1.28768101	0.08842799	-0.11738258	-0.76462353	-0.08952656	-0.36111612	2.75640047	-0.08611474	1.64135596	-1.30441365	0.36932850	-0.44033790	0.11096354	1.96143441	-4.27937425	1.20405994
3048	30.47000000	-0.50822930	-0.10482606	0.34859838	0.16212347	-0.08787449	0.20787995	-0.41368262	-0.34369713	-1.17296517	-0.50977244	-0.07963718	-0.82908801	-0.20958796	-0.31463589	2.68766596	-0.00466480	1.67735440	-1.34579990	0.29253721	-0.38722514	0.13771664	1.86791048	-3.97776899	1.53050135
3049	30.48000000	-0.61494607	-0.09204932	0.36177586	0.17867276	-0.04698184	0.20483269	-0.40122033	-0.23177691	-1.03946073	-0.91962866	-0.20790082	-0.75685819	-0.47561669	-0.22503491	2.58237112	0.12890969	1.69526638	-1.39840031	0.27584621	-0.33210931	0.11515740	2.34906251	-3.44785281	1.60996071
3050	30.49000000	-0.72394866	-0.07926169	0.39423317	0.18865854	0.02837159	0.17629092	-0.34727366	-0.28625650	-0.92814152	-1.00286472	-0.41138007	-0.71720747	-0.66099464	-0.11317727	2.39085019	0.19990834	1.74072475	-1.45782984	0.16298445	-0.28503728	0.11533882	3.48359911	-2.98219472	1.48235698
3051	30.50000000	-0.82413061	-0.06611740	0.44873771	0.20646202	0.11233708	0.13776615	-0.17010784	-0.33316210	-0.85301115	-0.84071657	-0.56316931	-0.73137524	-0.83630174	-0.04058077	2.13667023	0.25839313	1.73291180	-1.47977531	0.09520792	-0.25510310	0.11226741	4.01089120	-2.10617344	1.27284821
3052	30.51000000	-0.88529564	-0.04687031	0.50701919	0.22289716	0.17254853	0.08758231	0.20040626	-0.31802411	-0.76207400	-0.56180497	-0.56152391	-0.74133152	-0.63635706	-0.12255095	1.89319909	0.20596748	1.62002312	-1.48374353	0.01154694	-0.21100540	0.10528458	2.86800700	-0.71563279	0.99824869
3053	30.52000000	-0.92222720	-0.00453441	0.57562383	0.20445315	0.18900383	0.01249852	0.52131797	-0.30898993	-0.67847193	-0.21199672	-0.41223218	-0.76218782	-0.18095320	-0.28797654	1.53744985	0.21077004	1.46340330	-1.44045383	-0.06033921	-0.15575420	0.09690966	0.14472515	0.92063133	1.41523977
3054	30.53000000	-0.91700258	0.01138368	0.63375430	0.17189928	0.15644199	-0.07523514	0.54747851	-0.29652493	-0.63097580	0.11253092	-0.23364249	-0.80520861	0.45523945	-0.50812561	0.90952307	0.24821087	1.31449828	-1.37599138	-0.09672764	-0.14380463	0.08787532	-0.22517196	1.29098155	1.61558974
3055	30.54000000	-0.91650120	0.02509006	0.67765806	0.15171596	0.11060133	-0.16799026	0.37742499	-0.26622874	-0.59196130	0.25572228	-0.15667694	-0.82723561	1.25289632	-0.55199618	0.15858721	0.25460140	1.06327376	-1.36484488	-0.05755073	-0.15888671	0.07217767	-0.00216643	1.51219231	1.54310146
3056	30.55000000	-0.87963882	0.03605324	0.70829245	0.16175093	0.08863055	-0.25216309	0.17285031	-0.21125333	-0.55812064	0.16777421	-0.18356150	-0.82203979	1.64978732	-0.38583392	-0.46321640	0.28250584	0.84272316	-1.31808801	-0.07033820	-0.14744922	0.04552182	0.31142895	2.06570926	1.22170831
3057	30.56000000	-0.83264561	0.03979527	0.72333311	0.17900644	0.09504462	-0.30441040	-0.01208678	-0.18392913	-0.57638196	0.00056938	-0.23930763	-0.81661965	1.66256854	-0.23804779	-0.85324714	0.30476410	0.72319479	-1.21488408	-0.05391592	-0.13989281	0.03254695	0.28454395	2.54539087	0.86853928
3058	30.57000000	-0.79642135	0.03405735	0.73385049	0.19491314	0.11897378	-0.33638204	-0.14571838	-0.19596914	-0.61402300	-0.11058393	-0.26259370	-0.82758969	1.55462873	-0.19469048	-1.17423281	0.31329954	0.71304341	-1.14445996	-0.03426325	-0.13473973	0.01339882	-0.17221988	2.82782250	0.60523519
3059	30.58000000	-0.78900401	0.02034347	0.74144212	0.21703507	0.14191628	-0.34163652	-0.23874658	-0.19560324	-0.61647491	-0.18554852	-0.28498398	-0.83680862	1.43666698	-0.18024619	-1.52103016	0.33626358	0.75684681	-1.10450046	-0.02505965	-0.10503518	-0.00916027	-0.63323329	3.04262462	0.32555539
3060	30.59000000	-0.80020729	0.00512660	0.74402894	0.24075872	0.15125491	-0.33265390	-0.22543202	-0.18875181	-0.58754062	-0.25581936	-0.31612546	-0.84507420	1.30074100	-0.12407222	-1.88244890	0.19978749	0.72046964	-1.07886745	0.00730475	-0.09621560	-0.03844277	-0.86602817	3.28079115	-0.03909308
3061	30.60000000	-0.83235313	0.01283979	0.74666253	0.25884144	0.16118673	-0.30678633	-0.12090026	-0.19394577	-0.57385520	-0.32871892	-0.33428325	-0.85440681	1.15887075	0.01325206	-2.21551892	-0.02116349	0.59144572	-1.04646175	0.04142770	-0.05328489	-0.07751512	-0.83130059	3.50184900	-0.42941305
3062	30.61000000	-0.85619246	0.02701955	0.74302535	0.27981718	0.17066736	-0.26246764	-0.00096040	-0.20116730	-0.59474271	-0.36080504	-0.31293444	-0.85768676	0.95502810	0.13624688	-2.49806143	-0.19894923	0.53876438	-1.02903260	0.08037915	-0.04641832	-0.10986154	-0.67342518	3.65320466	-0.76583085
3063	30.62000000	-0.85862008	0.04900999	0.73726589	0.28888711	0.18144012	-0.22328473	0.08012284	-0.19134291	-0.59395160	-0.36612639	-0.23945288	-0.83045013	0.73489908	0.19791614	-2.80833757	-0.36231561	0.48860942	-0.97126563	0.12479708	-0.04883862	-0.14251150	-0.52901194	3.72229571	-1.00157986
3064	30.63000000	-0.86349710	0.07772529	0.72880990	0.31228483	0.20310834	-0.18111289	0.07516863	-0.19718700	-0.58005432	-0.35229715	-0.17764358	-0.80299472	0.58988031	0.21801631	-3.16511813	-0.48840116	0.45277475	-0.89686931	0.20020271	-0.07015541	-0.18431305	-0.44949241	3.73783081	-1.15982418
